Source: Death.Sentence.2007.720p.BluRay.x264-SiNNERS

Subs: Arabic, Bulgarian, Chinese, Croatian, Dutch, English, Farsi-Persian, Finnish, French, German, Greek, Hebrew, Hungarian, Norwegian, Polish, Portuguese, Romanian, Servian, Slovenian, Spanish, Swedish and Vietnamese.

Sample and Screens included.

General
Complete name                    : Death Sentence-720p Mp4 AAC BRRip 2007-CC.mp4
Format                           : MPEG-4
Format profile                   : Base Media
Codec ID                         : isom
File size                        : 1.97 GiB
Duration                         : 1h 41mn
Overall bit rate                 : 2 785 Kbps
Encoded date                     : UTC 2012-03-22 07:52:28

Video
ID                               : 1
Format                           : AVC
Format/Info                      : Advanced Video Codec
Format profile                   : High@L3.1
Format settings, CABAC           : Yes
Format settings, ReFrames        : 5 frames
Codec ID                         : avc1
Codec ID/Info                    : Advanced Video Coding
Duration                         : 1h 41mn
Bit rate mode                    : Variable
Bit rate                         : 2 398 Kbps
Nominal bit rate                 : 2 454 Kbps
Maximum bit rate                 : 9 588 Kbps
Width                            : 1 280 pixels
Height                           : 528 pixels
Display aspect ratio             : 2.40:1
Frame rate mode                  : Variable
Frame rate                       : 25.000 fps
Minimum frame rate               : 20.000 fps
Maximum frame rate               : 25.000 fps
Resolution                       : 24 bits
Colorimetry                      : 4:2:0
Scan type                        : Progressive
Bits/(Pixel*Frame)               : 0.142
Stream size                      : 1.70 GiB (86%)
Writing library                  : x264 core 112


Audio
ID                               : 2
Format                           : AAC
Format/Info                      : Advanced Audio Codec
Format version                   : Version 4
Format profile                   : LC
Format settings, SBR             : No
Codec ID                         : 40
Duration                         : 1h 41mn
Bit rate mode                    : Variable
Bit rate                         : 384 Kbps
Maximum bit rate                 : 615 Kbps
Channel(s)                       : 6 channels
Channel positions                : Front: L C R, Rear: L R, LFE
Sampling rate                    : 48.0 KHz
Resolution                       : 16 bits
Stream size                      : 278 MiB (14%)